<svg width="1920" height="1080" viewBox="0 0 1920 1080" fill="none" xmlns="http://www.w3.org/2000/svg">
  <defs>
    <linearGradient id="bg" x1="0" y1="0" x2="1920" y2="1080" gradientUnits="userSpaceOnUse">
      <stop stop-color="#09121B"/>
      <stop offset="0.48" stop-color="#0D1521"/>
      <stop offset="1" stop-color="#071019"/>
    </linearGradient>
    <linearGradient id="panel" x1="28" y1="28" x2="1892" y2="1052" gradientUnits="userSpaceOnUse">
      <stop stop-color="#101924"/>
      <stop offset="1" stop-color="#0A111A"/>
    </linearGradient>
    <linearGradient id="active" x1="92" y1="354" x2="452" y2="424" gradientUnits="userSpaceOnUse">
      <stop stop-color="#2A58F0"/>
      <stop offset="1" stop-color="#2545C7"/>
    </linearGradient>
    <filter id="blurGlow" x="-80" y="-80" width="2080" height="1240" filterUnits="userSpaceOnUse" color-interpolation-filters="sRGB">
      <feGaussianBlur stdDeviation="42"/>
    </filter>
    <filter id="softShadow" x="520" y="220" width="1380" height="760" filterUnits="userSpaceOnUse" color-interpolation-filters="sRGB">
      <feDropShadow dx="0" dy="28" stdDeviation="34" flood-color="#000814" flood-opacity="0.5"/>
    </filter>
    <style>
      .pixel { font-family: "Silkscreen", "JetBrains Mono", monospace; letter-spacing: 1px; }
      .title { fill: #F7FBFF; font-size: 39px; font-weight: 700; }
      .muted { fill: #91A0B7; font-size: 34px; font-weight: 500; }
      .nav { fill: #B7C2D3; font-size: 35px; font-weight: 700; }
      .small { fill: #8FA0B8; font-size: 28px; font-weight: 500; }
    </style>
  </defs>

  <rect width="1920" height="1080" fill="url(#bg)"/>
  <g opacity="0.45" filter="url(#blurGlow)">
    <circle cx="270" cy="150" r="185" fill="#7A2CFF"/>
    <circle cx="1660" cy="920" r="230" fill="#0B75FF"/>
    <circle cx="975" cy="1030" r="270" fill="#0CD571"/>
  </g>
  <g opacity="0.08">
    <path d="M0 90H1920M0 180H1920M0 270H1920M0 360H1920M0 450H1920M0 540H1920M0 630H1920M0 720H1920M0 810H1920M0 900H1920M0 990H1920" stroke="#89C4FF"/>
    <path d="M84 0V1080M168 0V1080M252 0V1080M336 0V1080M420 0V1080M504 0V1080M588 0V1080M672 0V1080M756 0V1080M840 0V1080M924 0V1080M1008 0V1080M1092 0V1080M1176 0V1080M1260 0V1080M1344 0V1080M1428 0V1080M1512 0V1080M1596 0V1080M1680 0V1080M1764 0V1080M1848 0V1080" stroke="#89C4FF"/>
  </g>

  <rect x="31" y="31" width="1858" height="1018" rx="70" fill="url(#panel)" stroke="#1D6982" stroke-width="8"/>
  <rect x="44" y="50" width="458" height="976" rx="34" fill="#111A26" opacity="0.86"/>

  <g>
    <circle cx="224" cy="187" r="72" fill="#18062E"/>
    <path d="M156 218C184 229 211 230 237 220C207 211 185 196 170 175C160 160 154 143 153 124C166 154 188 178 221 195C241 205 263 210 286 210C270 232 248 247 220 254C195 250 173 238 156 218Z" fill="#5D0BE7"/>
    <path d="M217 138H313L296 161H239L230 176H282L264 199H218L205 225H303L284 250H146L217 138Z" fill="#D64CFF"/>
    <path d="M217 138H313L296 161H239L230 176H282L264 199H218L205 225H303L284 250H146L217 138Z" fill="white" opacity="0.18"/>
  </g>

  <g class="pixel">
    <rect x="92" y="354" width="360" height="70" rx="35" fill="url(#active)"/>
    <text x="136" y="406" class="title" font-size="34">Combat</text>
    <text x="134" y="516" class="nav">Mouvement</text>
    <text x="134" y="624" class="nav">Visuel</text>
    <text x="134" y="732" class="nav">Utilitaire</text>
    <text x="134" y="840" class="nav">HUD</text>
    <text x="134" y="948" class="nav">General</text>
  </g>

  <g class="pixel">
    <text x="586" y="156" class="title">Combat</text>
    <text x="586" y="211" class="muted">Modules stables et orientes QoL</text>
    <rect x="1328" y="113" width="460" height="86" rx="43" fill="#274CD2"/>
    <text x="1429" y="166" class="title" font-size="34">Editer le HUD</text>
  </g>

  <g filter="url(#softShadow)">
    <g class="pixel">
      <rect x="588" y="296" width="1240" height="176" rx="10" fill="#0A111A" opacity="0.78"/>
      <rect x="588" y="296" width="16" height="176" fill="#2D3B50"/>
      <circle cx="682" cy="383" r="45" fill="#1C2A3F"/>
      <text x="665" y="397" class="title" font-size="32">H</text>
      <text x="762" y="366" class="title">HealthAlert</text>
      <text x="762" y="421" class="muted">Affiche une alerte claire quand les points de vie sont bas.</text>
      <rect x="1628" y="357" width="120" height="56" rx="28" fill="#4D5C6F"/>
      <circle cx="1660" cy="385" r="28" fill="#EEF3F8"/>
    </g>

    <g class="pixel">
      <rect x="588" y="512" width="1240" height="176" rx="10" fill="#0A111A" opacity="0.78"/>
      <rect x="588" y="512" width="16" height="176" fill="#2D3B50"/>
      <circle cx="682" cy="599" r="45" fill="#1C2A3F"/>
      <text x="666" y="613" class="title" font-size="32">N</text>
      <text x="762" y="582" class="title">NoHurtCam</text>
      <text x="762" y="637" class="muted">Reduit les secousses de camera quand vous prenez un coup.</text>
      <rect x="1628" y="573" width="120" height="56" rx="28" fill="#4D5C6F"/>
      <circle cx="1660" cy="601" r="28" fill="#EEF3F8"/>
    </g>

    <g class="pixel">
      <rect x="588" y="728" width="1240" height="176" rx="10" fill="#0A111A" opacity="0.78"/>
      <rect x="588" y="728" width="16" height="176" fill="#24DC62"/>
      <circle cx="682" cy="815" r="45" fill="#1C2A3F"/>
      <text x="667" y="829" class="title" font-size="32">L</text>
      <text x="762" y="798" class="title">LowFire</text>
      <text x="762" y="853" class="muted">Reduit la hauteur du feu sur l'ecran.</text>
      <rect x="1628" y="789" width="120" height="56" rx="28" fill="#18A849"/>
      <circle cx="1718" cy="817" r="28" fill="#F2F8F6"/>
    </g>
  </g>

  <rect x="1840" y="296" width="14" height="560" rx="7" fill="#255AF0"/>
  <rect x="1840" y="296" width="14" height="154" rx="7" fill="#3A76FF"/>
</svg>
